<?xml version="1.0" encoding="utf-8"?>
<!-- Generator: Adobe Illustrator 20.1.0, SVG Export Plug-In . SVG Version: 6.00 Build 0)  -->
<svg version="1.1" id="Слой_1" xmlns="http://www.w3.org/2000/svg" xmlns:xlink="http://www.w3.org/1999/xlink" x="0px" y="0px"
	 viewBox="0 0 500 500" style="enable-background:new 0 0 500 500;" xml:space="preserve">
<style type="text/css">
	.st0{fill:url(#SVGID_1_);}
	.st1{fill:url(#SVGID_2_);}
	.st2{fill:#0C6657;}
	.st3{fill:#FFFFFF;stroke:#000000;stroke-miterlimit:10;}
</style>
<g>
	<linearGradient id="SVGID_1_" gradientUnits="userSpaceOnUse" x1="0" y1="250" x2="500" y2="250">
		<stop  offset="0" style="stop-color:#000000"/>
		<stop  offset="1" style="stop-color:#020202"/>
	</linearGradient>
	<path class="st0" d="M321,500H179C80.1,500,0,419.9,0,321V179C0,80.1,80.1,0,179,0h142c98.9,0,179,80.1,179,179v142
		C500,419.9,419.9,500,321,500z"/>
	<linearGradient id="SVGID_2_" gradientUnits="userSpaceOnUse" x1="0" y1="250" x2="500" y2="250">
		<stop  offset="0" style="stop-color:#000000"/>
		<stop  offset="1" style="stop-color:#020202"/>
	</linearGradient>
	<path class="st1" d="M321,0.3c24.1,0,47.5,4.7,69.6,14c21.3,9,40.4,21.9,56.8,38.3s29.3,35.5,38.3,56.8c9.3,22,14,45.4,14,69.6v142
		c0,24.1-4.7,47.5-14,69.6c-9,21.3-21.9,40.4-38.3,56.8s-35.5,29.3-56.8,38.3c-22,9.3-45.4,14-69.6,14H179c-24.1,0-47.5-4.7-69.6-14
		c-21.3-9-40.4-21.9-56.8-38.3s-29.3-35.5-38.3-56.8c-9.3-22-14-45.4-14-69.6V179c0-24.1,4.7-47.5,14-69.6
		c9-21.3,21.9-40.4,38.3-56.8s35.5-29.3,56.8-38.3c22-9.3,45.4-14,69.6-14L321,0.3 M321,0H179C80.1,0,0,80.1,0,179v142
		c0,98.9,80.1,179,179,179h142c98.9,0,179-80.1,179-179V179C500,80.1,419.9,0,321,0L321,0z"/>
</g>
<g>
	<path class="st2" d="M87,149.3c0,0,0.3-0.3,0.8-0.8s1.3-1.4,2.3-2.4c2.1-2,5.2-5,9.5-8.5s9.6-7.5,16.3-11.5c1.7-1,3.4-2,5.2-3
		c1.8-1,3.7-2,5.7-2.9c2-1,4-2,6.1-2.8c1.1-0.4,2.1-0.9,3.2-1.4c1.1-0.4,2.2-0.9,3.3-1.3s2.3-0.9,3.4-1.2c1.2-0.4,2.4-0.8,3.5-1.2
		c2.4-0.7,4.9-1.4,7.4-2.1c2.5-0.6,5.1-1.3,7.9-1.8c2.7-0.5,5.4-0.9,8.2-1.2c5.1-0.7,11.1-1.1,16.8-1.4c5.8-0.3,11.7-0.1,17.8,0.2
		c6,0.3,12.2,1.1,18.3,2c3,0.5,6.2,1,9,1.6c1.4,0.3,2.9,0.5,4.3,0.8c1.4,0.3,2.9,0.5,4.4,0.7c2.9,0.5,5.9,0.9,8.9,1.3
		c3,0.5,5.9,0.9,8.9,1.3c6,0.8,12,1.5,18,2c12,1.2,24.1,1.9,35.9,2.1c2.9,0,5.9,0,8.8,0c2.9-0.1,5.9-0.1,8.7-0.2
		c1.5-0.1,3-0.1,4.4-0.2s2.8-0.2,4.2-0.3c2.8-0.2,5.6-0.5,8.4-0.8c5.6-0.6,11.1-1.4,16.4-2.3c5.4-0.9,10.6-1.9,15.8-3
		c5.2-1.1,10.2-2.2,15.4-3c2.6-0.4,5.2-0.8,8.1-0.8c0.8,0,1.4,0,2.3,0.1l1.2,0.1l1.2,0.2c1.7,0.3,3.5,0.9,5.2,2.1
		c0.4,0.3,0.8,0.6,1.2,1c0.2,0.2,0.4,0.3,0.6,0.5l0.5,0.6l0.5,0.6l0.1,0.1c0.1,0.2-0.1-0.2,0.3,0.5l0.1,0.2l0.4,0.8
		c0.3,0.7,0.9,2.1,1,2.8c0.1,0.8,0.3,1.7,0.3,2.4c0.1,3.1-0.7,5.6-1.5,7.9c-1.6,4.5-3.9,8.1-6,11.4c-2.2,3.2-4.3,6.1-6.4,8.7
		c-1,1.3-2.1,2.5-3,3.7c-1,1.1-1.9,2.2-2.8,3.2c-1.8,2.1-3.5,3.8-4.9,5.3c-1.4,1.6-2.7,2.8-3.7,3.9c-2.1,2.1-3.2,3.1-3.2,3.1
		s0.8-1.3,2.4-3.7s3.9-6,6.7-10.6c2.8-4.6,6.1-10.2,9.3-16.8c1.5-3.3,3-6.9,3.8-10.5c0.2-0.9,0.3-1.8,0.4-2.6c0-0.8,0-1.6-0.1-2.3
		c0-0.4-0.2-0.6-0.2-0.9c0-0.2-0.1-0.1-0.1-0.2l0,0c0,0,0.1,0-0.1-0.1l-0.5-0.7l-0.1-0.2c0.4,0.7,0.1,0.2,0.2,0.3l0,0
		c0,0-0.1,0-0.1-0.1l-0.1-0.1h-0.1c-0.1,0-0.1-0.1-0.2-0.1c-0.2-0.1-0.7-0.2-1.4-0.2H405h-0.6c-0.4,0-0.9,0.1-1.3,0.1
		c-1.9,0.2-4.1,0.8-6.4,1.4c-4.6,1.2-9.5,2.9-14.6,4.4s-10.5,3.1-16,4.5s-11.3,2.6-17.1,3.7c-2.9,0.5-5.9,1-8.9,1.4
		c-1.5,0.2-3.1,0.4-4.6,0.6c-1.6,0.2-3,0.3-4.5,0.5c-3.1,0.3-6.2,0.5-9.3,0.7c-3.1,0.2-6.2,0.3-9.3,0.4c-12.5,0.4-25.1-0.1-37.7-1.1
		c-12.6-1.1-25-2.5-37.3-4.7c-1.5-0.3-3.1-0.5-4.6-0.8s-3.1-0.6-4.6-0.9s-2.9-0.6-4.4-0.9c-1.4-0.3-2.8-0.6-4.2-0.8
		c-5.6-1.1-11.2-1.8-16.6-2.5c-5.5-0.6-10.9-0.9-16.3-1.2c-5.4-0.2-10.3-0.1-15.8,0c-2.4,0.1-5,0.2-7.4,0.4
		c-0.6,0.1-1.1,0.1-1.8,0.2c-0.6,0.1-1.2,0.1-1.8,0.2c-1.2,0.1-2.4,0.3-3.6,0.4c-2.4,0.3-4.7,0.7-6.9,1.1c-2.2,0.5-4.5,0.8-6.7,1.4
		c-1.1,0.3-2.2,0.5-3.2,0.8c-1.1,0.3-2.1,0.6-3.1,0.9s-2.1,0.5-3.1,0.8s-2,0.6-3,0.9c-3.9,1.2-7.6,2.5-11,3.9
		c-6.9,2.7-12.7,5.4-17.5,7.8c-4.8,2.4-8.5,4.4-11.1,5.9C88.4,148.5,87,149.3,87,149.3z"/>
</g>
<g>
	<path class="st2" d="M126.1,170.5c1-2.5,2.2-5,3.5-7.4s2.7-4.8,4.2-7.1s3.2-4.5,4.9-6.7c1.8-2.2,3.6-4.3,5.6-6.3c1-1,2-2,3-3
		s2.1-1.9,3.1-2.9c2.1-1.9,4.4-3.6,6.7-5.3l0.9-0.6l0.2-0.2l0,0c0.1,0-0.1,0,0.1-0.1h0.1l0.1-0.1l0.4-0.3l1.7-1.1
		c0.5-0.4,1.2-0.8,1.8-1.2l1.9-1.2c1.2-0.7,2.5-1.5,3.7-2.2c1.3-0.7,2.5-1.4,3.8-2c2.6-1.3,5.2-2.4,7.9-3.5c1.3-0.5,2.7-1,4.1-1.5
		c1.4-0.5,2.7-0.9,4.1-1.3c2.8-0.9,5.6-1.5,8.4-2.1c2.8-0.5,5.7-1,8.5-1.2c2.9-0.3,5.7-0.4,8.6-0.4c2.9,0,5.7,0.2,8.6,0.5
		c5.7,0.6,11.4,1.6,16.8,3.6l0,0l5.2,0.9l-0.3,5.5c-0.3,5.9-0.8,11.7-1.4,17.5c-0.3,2.9-0.6,5.8-1,8.7c-0.3,2.9-0.7,5.8-1.1,8.7
		c-0.8,5.8-1.6,11.6-2.6,17.4l-1.4,8.7c-0.5,2.9-1,5.8-1.5,8.6c-2.1,11.5-4.6,23-7.1,34.4l-1.9,8.6l-2,8.6c-1.3,5.7-2.8,11.4-4.2,17
		c-1.5,5.7-2.9,11.3-4.5,17c-1.5,5.6-3.1,11.3-4.7,16.9c-1.6,5.6-3.3,11.2-5,16.8l-2.6,8.4l-2.6,8.4c-1.8,5.6-3.6,11.1-5.5,16.7
		c-1.8,5.5-3.8,11.1-5.7,16.6s-4,11-6,16.5s-4.2,10.9-6.3,16.3l4.5-16.9l4.4-16.9c1.4-5.6,2.8-11.3,4.2-17c1.4-5.6,2.8-11.3,4.1-17
		l3.9-17c1.3-5.7,2.5-11.3,3.7-17l3.6-17.1c1.2-5.7,2.3-11.4,3.4-17.1l3.2-17.1l1.6-8.6l1.5-8.6c1-5.7,2-11.4,2.9-17.2l2.8-17.2
		l5.6-34.3l1.4-8.6c0.5-2.9,1-5.7,1.5-8.6c1-5.7,2-11.6,3.1-17.4l4.9,6.3l0,0c-5.2,1-10.2,0.5-15.3,0.8c-5,0.3-10,0.8-14.9,1.4
		c-2.5,0.3-4.9,0.7-7.4,1.1c-2.4,0.4-4.9,0.9-7.3,1.4c-2.4,0.5-4.8,1.1-7.2,1.8c-1.2,0.3-2.4,0.7-3.6,1.1c-1.2,0.4-2.4,0.7-3.6,1.2
		c-2.4,0.8-4.7,1.7-7,2.7l-1.7,0.7c-0.6,0.2-1.1,0.5-1.7,0.8l-1.8,0.9l-0.5,0.2l-0.1,0.1h-0.1c0.2-0.1,0,0,0.1,0l0,0l-0.2,0.1
		l-0.8,0.4c-1.1,0.6-2.3,1.1-3.4,1.7c-1.1,0.6-2.3,1.2-3.3,1.8c-1.1,0.6-2.2,1.3-3.3,2s-2.2,1.4-3.3,2.1c-2.2,1.4-4.3,2.9-6.4,4.5
		c-2.1,1.6-4.2,3.2-6.2,4.9C133.9,163,130,166.6,126.1,170.5z"/>
</g>
<g>
	<path class="st2" d="M343.6,231.9c0,0-0.5-0.2-1.3-0.7c-0.9-0.5-2.1-1.1-3.7-1.9c-1.6-0.8-3.6-1.7-5.8-2.8c-2.3-1-4.8-2.1-7.6-3.2
		c-5.6-2.2-12.3-4.2-19.5-5.6c-0.9-0.2-1.8-0.3-2.7-0.5l-0.3-0.1h-0.2h-0.1l0,0c-0.2,0,0.2,0.1,0.2,0l-0.7-0.1l-1.5-0.2
		c-1-0.1-2-0.3-3-0.4l-1.5-0.2c-0.5-0.1-1-0.2-1.5-0.2c-1.8-0.1-3.7-0.2-5.5-0.4c-1.9-0.1-3.8-0.1-5.7-0.1c-1.9-0.1-3.8,0.1-5.7,0.2
		c-1,0.1-1.9,0.1-2.8,0.2c-0.9,0.1-1.9,0.2-2.8,0.3s-1.9,0.2-2.8,0.3c-0.9,0.2-1.8,0.3-2.7,0.5c-0.9,0.2-1.8,0.3-2.7,0.5
		c-0.9,0.2-1.8,0.4-2.6,0.6c-1.7,0.4-3.5,0.7-5.1,1.2c-1.7,0.4-3.3,0.8-4.9,1.3c-3.2,0.9-6.1,1.8-8.9,2.6c-1.4,0.4-2.7,0.9-3.9,1.3
		c-1.2,0.4-2.4,0.8-3.5,1.2s-2.1,0.8-3.1,1.1c-1,0.4-1.8,0.7-2.6,1c-1.6,0.6-2.8,1.1-3.6,1.4c-0.4,0.2-0.7,0.3-1,0.4h-0.1
		c0,0-0.1-0.1-0.2-0.3c-0.1-0.1-0.2-0.3-0.3-0.4c-0.1-0.2-0.2-0.3-0.3-0.5c-0.3-0.5-0.5-0.9-0.8-1.3c-1.4-2.4-2.1-3.6-2.1-3.6
		s-0.7-1.2-2-3.7c-0.2-0.4-0.4-0.8-0.7-1.3c-0.2-0.3-0.2-0.4-0.3-0.5s-0.1-0.3-0.2-0.4c-0.1-0.2-0.1-0.4-0.1-0.3l0.1-0.1
		c0.2-0.1,0.5-0.4,1-0.7c0.8-0.6,2.1-1.4,3.7-2.4c0.8-0.5,1.7-1,2.7-1.6s2.1-1.1,3.3-1.8c2.4-1.2,5.1-2.5,8.2-3.7
		c3.1-1.2,6.5-2.3,10.1-3.3c1.8-0.5,3.7-0.9,5.7-1.3c1.9-0.4,4-0.7,6-0.9c1-0.1,2.1-0.3,3.1-0.4c1-0.1,2.1-0.2,3.2-0.2
		c1.1-0.1,2.1-0.1,3.2-0.2c1.1,0,2.2,0,3.2,0c1.1,0,2.2,0,3.3,0c1.1,0,2.2,0.1,3.3,0.1c2.2,0.2,4.4,0.2,6.6,0.5s4.3,0.5,6.5,0.9
		s4.4,0.9,6.5,1.4s3.9,1.1,5.8,1.7l1.4,0.4l0.7,0.2c0,0,0.4,0.1,0.2,0.1l0,0h0.1l0.2,0.1l0.4,0.1c1,0.4,1.9,0.7,2.9,1.1
		c7.6,3,14.2,6.7,19.4,10.3c2.6,1.8,4.9,3.6,6.9,5.3s3.6,3.2,4.9,4.5s2.3,2.4,2.9,3.1C343.2,231.5,343.6,231.9,343.6,231.9z"/>
</g>
<path class="st3" d="M120,136"/>
</svg>
